<svg width="30" height="30" viewBox="0 0 30 30" fill="none" xmlns="http://www.w3.org/2000/svg">
<path fill-rule="evenodd" clip-rule="evenodd" d="M14.5229 11.3583L27.8667 15.5875C28.808 15.8685 29.4985 16.6732 29.6335 17.6463C29.7685 18.6193 29.323 19.5816 28.4938 20.1083L23.8417 23.025C23.5338 23.2159 23.2742 23.4754 23.0833 23.7833L20.1667 28.4354C19.7276 29.1483 18.9477 29.5798 18.1104 29.5729C16.9922 29.5807 15.9991 28.8595 15.6604 27.7937L11.4313 14.45C11.1549 13.5734 11.3892 12.6159 12.039 11.9661C12.6889 11.3162 13.6464 11.0819 14.5229 11.3583ZM22.6021 21.0125L27.2542 18.0958C27.3031 18.0498 27.3094 17.9743 27.2688 17.9208C27.2542 17.8187 27.1521 17.8187 27.1521 17.8187L13.8083 13.5895V13.677L18.0375 27.0208C18.0524 27.1117 18.1354 27.1755 18.2271 27.1666L21.1438 22.4708C21.5213 21.887 22.0183 21.39 22.6021 21.0125Z" fill="#C4B5FD"/>
<path d="M5.99167 4.46038C5.57648 4.08902 4.94853 4.08902 4.53334 4.46038C4.17474 4.88035 4.17474 5.49873 4.53334 5.91871L7.45 8.98121C7.65832 9.18125 7.93417 9.29576 8.22292 9.30204C8.51227 9.29868 8.78916 9.18375 8.99584 8.98121C9.22889 8.78282 9.36675 8.49481 9.37509 8.18887C9.38343 7.88293 9.26148 7.58783 9.03959 7.37704L5.99167 4.46038Z" fill="#C4B5FD"/>
<path d="M12.2188 7.37704C12.5089 7.36941 12.7841 7.24679 12.9837 7.03618C13.1834 6.82557 13.2912 6.54423 13.2833 6.25413V2.01038C13.2833 1.40631 12.7936 0.916626 12.1896 0.916626C11.5855 0.916626 11.0958 1.40631 11.0958 2.01038V6.25413C11.0877 6.55436 11.2034 6.84472 11.4158 7.05709C11.6282 7.26946 11.9185 7.38516 12.2188 7.37704Z" fill="#C4B5FD"/>
<path d="M16.2875 7.28954C16.5778 7.29091 16.8564 7.17526 17.0604 6.96871L20.0646 3.96454C20.3572 3.69188 20.4777 3.28123 20.3787 2.8937C20.2797 2.50618 19.9771 2.20357 19.5896 2.10461C19.2021 2.00564 18.7914 2.12609 18.5188 2.41871L15.5146 5.42288C15.0881 5.8499 15.0881 6.54168 15.5146 6.96871C15.7186 7.17526 15.9972 7.29091 16.2875 7.28954Z" fill="#C4B5FD"/>
<path d="M5.49584 15.4416L2.49167 18.4458C2.06518 18.8728 2.06518 19.5646 2.49167 19.9916C2.69471 20.1996 2.97396 20.3155 3.26459 20.3125C3.5549 20.3138 3.83351 20.1982 4.03751 19.9916L7.04167 16.9875C7.33429 16.7148 7.45474 16.3042 7.35578 15.9166C7.25681 15.5291 6.95421 15.2265 6.56668 15.1275C6.17915 15.0286 5.76851 15.149 5.49584 15.4416Z" fill="#C4B5FD"/>
<path d="M6.26876 11.1104H2.01042C1.40636 11.1104 0.916672 11.6001 0.916672 12.2041C0.916672 12.8082 1.40636 13.2979 2.01042 13.2979H6.26876C6.87282 13.2979 7.36251 12.8082 7.36251 12.2041C7.36251 11.6001 6.87282 11.1104 6.26876 11.1104Z" fill="#C4B5FD"/>
</svg>
