<svg width="31" height="31" viewBox="0 0 31 31" fill="none" xmlns="http://www.w3.org/2000/svg">
<path d="M28.4162 13.2685C27.3767 13.0382 26.2963 12.9167 25.1875 12.9167C17.2049 12.9167 10.693 19.2135 10.3477 27.111M28.4162 13.2685C28.4167 13.5676 28.4167 13.8806 28.4167 14.2083V16.7917C28.4167 20.4087 28.4167 22.2172 27.7128 23.5987C27.0936 24.8139 26.1056 25.8019 24.8904 26.4211C23.5089 27.125 21.7003 27.125 18.0833 27.125H12.9167C11.9368 27.125 11.0896 27.125 10.3477 27.111M28.4162 13.2685C28.4109 10.2671 28.3529 8.65763 27.7128 7.40131C27.0936 6.1861 26.1056 5.1981 24.8904 4.57892C23.5089 3.875 21.7003 3.875 18.0833 3.875H12.9167C9.29967 3.875 7.49117 3.875 6.10965 4.57892C4.89444 5.1981 3.90644 6.1861 3.28726 7.40131C2.58334 8.78282 2.58334 10.5913 2.58334 14.2083V16.7917C2.58334 20.4087 2.58334 22.2172 3.28726 23.5987C3.90644 24.8139 4.89444 25.8019 6.10965 26.4211C7.1169 26.9343 8.35112 27.0733 10.3477 27.111M9.68751 12.9167C8.61746 12.9167 7.75001 12.0492 7.75001 10.9792C7.75001 9.90911 8.61746 9.04167 9.68751 9.04167C10.7576 9.04167 11.625 9.90911 11.625 10.9792C11.625 12.0492 10.7576 12.9167 9.68751 12.9167Z" stroke="#C4B5FD" stroke-width="2" stroke-linecap="round" stroke-linejoin="round"/>
</svg>
