<svg width="23" height="31" viewBox="0 0 23 31" fill="none" xmlns="http://www.w3.org/2000/svg">
<path fill-rule="evenodd" clip-rule="evenodd" d="M8.89244 1.82518C9.53909 0.696912 10.7336 0.0013363 12.0269 0L12.045 0.0365036C14.0464 0.0365036 15.6687 1.67082 15.6687 3.68686V11.1883H19.3649C20.7036 11.1841 21.9355 11.9237 22.5688 13.1118C23.2021 14.2998 23.1336 15.7429 22.3907 16.8647L14.1468 29.3854C13.2585 30.7169 11.6114 31.3082 10.0874 30.8426C8.56345 30.377 7.51983 28.9637 7.51544 27.3594V22.1577H3.6381C2.34091 22.1629 1.13991 21.4692 0.489084 20.3388C-0.161744 19.2084 -0.163112 17.8138 0.485498 16.6821L8.89244 1.82518ZM12.6793 2.99852C12.5054 2.82684 12.2703 2.73286 12.0269 2.73777C11.6952 2.7389 11.393 2.93006 11.2478 3.23057L2.84089 18.051C2.6871 18.3342 2.69321 18.6781 2.85695 18.9555C3.0207 19.2329 3.31772 19.4025 3.6381 19.4016H8.42136C9.42202 19.4016 10.2332 20.2188 10.2332 21.2268V27.3412C10.238 27.7376 10.4964 28.0856 10.8726 28.2022C11.2488 28.3188 11.6567 28.1774 11.882 27.8522L20.1621 15.3132C20.3509 15.032 20.369 14.6684 20.2092 14.3695C20.0494 14.0706 19.7381 13.8857 19.4011 13.8896H14.7628C13.7622 13.8896 12.951 13.0725 12.951 12.0644V3.65036C12.951 3.40513 12.8531 3.1702 12.6793 2.99852Z" fill="#C4B5FD"/>
</svg>
