<svg width="18" height="15" viewBox="0 0 18 15" fill="none" xmlns="http://www.w3.org/2000/svg">
<path fill-rule="evenodd" clip-rule="evenodd" d="M0 9C0 8.73478 0.105357 8.48043 0.292893 8.29289C0.48043 8.10536 0.734784 8 1 8H13C13.7956 8 14.5587 7.68393 15.1213 7.12132C15.6839 6.55871 16 5.79565 16 5V1C16 0.734784 16.1054 0.48043 16.2929 0.292893C16.4804 0.105357 16.7348 0 17 0C17.2652 0 17.5196 0.105357 17.7071 0.292893C17.8946 0.48043 18 0.734784 18 1V5C18 6.32608 17.4732 7.59785 16.5355 8.53553C15.5979 9.47322 14.3261 10 13 10H1C0.734784 10 0.48043 9.89464 0.292893 9.70711C0.105357 9.51957 0 9.26522 0 9Z" fill="white"/>
<path fill-rule="evenodd" clip-rule="evenodd" d="M0.292786 9.70699C0.105315 9.51947 0 9.26516 0 8.99999C0 8.73483 0.105315 8.48052 0.292786 8.29299L4.29279 4.293C4.48139 4.11084 4.73399 4.01004 4.99619 4.01232C5.25838 4.0146 5.5092 4.11977 5.6946 4.30518C5.88001 4.49058 5.98518 4.7414 5.98746 5.00359C5.98974 5.26579 5.88894 5.51839 5.70679 5.70699L2.41379 8.99999L5.70679 12.293C5.8023 12.3852 5.87848 12.4956 5.93089 12.6176C5.9833 12.7396 6.01088 12.8708 6.01204 13.0036C6.01319 13.1364 5.98789 13.2681 5.93761 13.3909C5.88733 13.5138 5.81307 13.6255 5.71918 13.7194C5.62529 13.8133 5.51364 13.8875 5.39074 13.9378C5.26784 13.9881 5.13616 14.0134 5.00339 14.0122C4.87061 14.0111 4.73939 13.9835 4.61738 13.9311C4.49538 13.8787 4.38503 13.8025 4.29279 13.707L0.292786 9.70699Z" fill="white"/>
</svg>
