<svg width="16" height="20" viewBox="0 0 16 20" fill="none" xmlns="http://www.w3.org/2000/svg">
<g clip-path="url(#clip0_308_1412)">
<path d="M14.0662 0H7.00023V5C7.00023 5.53043 6.78952 6.03914 6.41445 6.41421C6.03937 6.78929 5.53067 7 5.00023 7H0.000233711V18C-0.00779439 18.5215 0.191287 19.0248 0.553829 19.3998C0.916371 19.7747 1.41279 19.9905 1.93423 20H14.0662C14.5877 19.9905 15.0841 19.7747 15.4466 19.3998C15.8092 19.0248 16.0083 18.5215 16.0002 18V2C16.0083 1.47853 15.8092 0.975152 15.4466 0.600238C15.0841 0.225324 14.5877 0.00946877 14.0662 0ZM10.5002 6C10.7004 5.99483 10.8996 6.02979 11.086 6.10283C11.2725 6.17586 11.4424 6.28548 11.5858 6.42524C11.7292 6.56499 11.8432 6.73204 11.921 6.91654C11.9989 7.10104 12.039 7.29926 12.039 7.4995C12.039 7.69974 11.9989 7.89796 11.921 8.08246C11.8432 8.26696 11.7292 8.43401 11.5858 8.57376C11.4424 8.71352 11.2725 8.82314 11.086 8.89618C10.8996 8.96921 10.7004 9.00417 10.5002 8.999C10.1092 8.9889 9.73766 8.82649 9.46469 8.54638C9.19173 8.26627 9.03896 7.89062 9.03896 7.4995C9.03896 7.10838 9.19173 6.73273 9.46469 6.45262C9.73766 6.17251 10.1092 6.0101 10.5002 6ZM12.7212 16.515C12.6323 16.6631 12.5065 16.7855 12.3561 16.8705C12.2058 16.9555 12.036 17.0001 11.8632 17H3.86323C3.69464 16.9995 3.5289 16.9564 3.38143 16.8747C3.23395 16.793 3.10953 16.6753 3.01973 16.5327C2.92993 16.39 2.87766 16.2269 2.86778 16.0586C2.8579 15.8903 2.89074 15.7222 2.96323 15.57L5.60023 10.039C5.68149 9.86139 5.81408 9.71217 5.9809 9.61058C6.14772 9.50899 6.34114 9.45968 6.53623 9.469C6.7316 9.47486 6.92096 9.53785 7.08091 9.65017C7.24086 9.7625 7.3644 9.91923 7.43623 10.101L8.61723 13.082L9.15823 12.082C9.23954 11.9192 9.36611 11.7834 9.52275 11.6908C9.67938 11.5982 9.85942 11.5528 10.0412 11.56C10.2219 11.5606 10.399 11.61 10.5537 11.7032C10.7085 11.7963 10.8352 11.9297 10.9202 12.089L12.7522 15.527C12.8331 15.6803 12.8728 15.8519 12.8673 16.0251C12.8619 16.1983 12.8116 16.3671 12.7212 16.515Z" fill="black"/>
<path d="M4.99988 5V0.130005C4.51192 0.264984 4.06673 0.522867 3.70688 0.879005L0.878883 3.70701C0.523455 4.0674 0.265685 4.51239 0.129883 5H4.99988Z" fill="black"/>
</g>
<defs>
<clipPath id="clip0_308_1412">
<rect width="16" height="20" fill="white"/>
</clipPath>
</defs>
</svg>
