<svg width="152" height="39" viewBox="0 0 152 39" fill="none" xmlns="http://www.w3.org/2000/svg">
<path d="M10.5423 16.928V29.792C10.5423 30.688 10.7503 31.344 11.1663 31.76C11.6143 32.144 12.3503 32.336 13.3743 32.336H16.4943V38H12.2703C6.60625 38 3.77425 35.248 3.77425 29.744V16.928H0.60625V11.408H3.77425V4.832H10.5423V11.408H16.4943V16.928H10.5423ZM89.2664 2.48V38H82.5464V2.48H89.2664ZM111.65 38L102.626 26.672V38H95.9058V2.48H102.626V22.688L111.554 11.408H120.29L108.578 24.752L120.386 38H111.65ZM127.345 8.24C126.161 8.24 125.169 7.872 124.369 7.136C123.601 6.368 123.217 5.424 123.217 4.304C123.217 3.184 123.601 2.256 124.369 1.52C125.169 0.751998 126.161 0.367998 127.345 0.367998C128.529 0.367998 129.505 0.751998 130.273 1.52C131.073 2.256 131.473 3.184 131.473 4.304C131.473 5.424 131.073 6.368 130.273 7.136C129.505 7.872 128.529 8.24 127.345 8.24ZM130.657 11.408V38H123.937V11.408H130.657ZM145.12 16.928V29.792C145.12 30.688 145.328 31.344 145.744 31.76C146.192 32.144 146.928 32.336 147.952 32.336H151.072V38H146.848C141.184 38 138.352 35.248 138.352 29.744V16.928H135.184V11.408H138.352V4.832H145.12V11.408H151.072V16.928H145.12Z" fill="white"/>
<path d="M33.1356 38.432C30.5756 38.432 28.2716 37.872 26.2236 36.752C24.1756 35.6 22.5596 33.984 21.3756 31.904C20.2236 29.824 19.6476 27.424 19.6476 24.704C19.6476 21.984 20.2396 19.584 21.4236 17.504C22.6396 15.424 24.2876 13.824 26.3676 12.704C28.4476 11.552 30.7676 10.976 33.3276 10.976C35.8876 10.976 38.2076 11.552 40.2876 12.704C42.3676 13.824 43.9996 15.424 45.1836 17.504C46.3996 19.584 47.0076 21.984 47.0076 24.704C47.0076 27.424 46.3836 29.824 45.1356 31.904C43.9196 33.984 42.2556 35.6 40.1436 36.752C38.0636 37.872 35.7276 38.432 33.1356 38.432ZM33.1356 32.576C34.3516 32.576 35.4876 32.288 36.5436 31.712C37.6316 31.104 38.4956 30.208 39.1356 29.024C39.7756 27.84 40.0956 26.4 40.0956 24.704C40.0956 22.176 39.4236 20.24 38.0796 18.896C36.7676 17.52 35.1516 16.832 33.2316 16.832C31.3116 16.832 29.6956 17.52 28.3836 18.896C27.1036 20.24 26.4636 22.176 26.4636 24.704C26.4636 27.232 27.0876 29.184 28.3356 30.56C29.6156 31.904 31.2156 32.576 33.1356 32.576ZM63.745 38.432C61.185 38.432 58.881 37.872 56.833 36.752C54.785 35.6 53.169 33.984 51.985 31.904C50.833 29.824 50.257 27.424 50.257 24.704C50.257 21.984 50.849 19.584 52.033 17.504C53.249 15.424 54.897 13.824 56.977 12.704C59.057 11.552 61.377 10.976 63.937 10.976C66.497 10.976 68.817 11.552 70.897 12.704C72.977 13.824 74.609 15.424 75.793 17.504C77.009 19.584 77.617 21.984 77.617 24.704C77.617 27.424 76.993 29.824 75.745 31.904C74.529 33.984 72.865 35.6 70.753 36.752C68.673 37.872 66.337 38.432 63.745 38.432ZM63.745 32.576C64.961 32.576 66.097 32.288 67.153 31.712C68.241 31.104 69.105 30.208 69.745 29.024C70.385 27.84 70.705 26.4 70.705 24.704C70.705 22.176 70.033 20.24 68.689 18.896C67.377 17.52 65.761 16.832 63.841 16.832C61.921 16.832 60.305 17.52 58.993 18.896C57.713 20.24 57.073 22.176 57.073 24.704C57.073 27.232 57.697 29.184 58.945 30.56C60.225 31.904 61.825 32.576 63.745 32.576Z" fill="#C4B5FD"/>
</svg>
