<svg width="31" height="33" viewBox="0 0 31 33" fill="none" xmlns="http://www.w3.org/2000/svg">
<path d="M21.3534 10.3829C20.3483 7.68049 18.1056 5.79932 15.5003 5.79932C12.895 5.79932 10.6523 7.68049 9.6472 10.3829M21.3534 10.3829C25.498 11.2667 28.3336 13.0599 28.3336 15.1282C28.3336 18.0723 22.588 20.4589 15.5003 20.4589C8.41267 20.4589 2.66699 18.0723 2.66699 15.1282C2.66699 13.0599 5.50267 11.2667 9.6472 10.3829M21.3534 10.3829C21.84 11.6909 22.0092 13.1205 21.8705 14.5139C19.9934 14.9047 17.8187 15.1282 15.5003 15.1282C13.182 15.1282 11.0072 14.9047 9.13014 14.5139C8.99144 13.1205 9.16067 11.6909 9.6472 10.3829M5.23366 23.1243L3.95032 25.7897M15.5003 24.457V28.4551M25.767 23.1243L27.0503 25.7897" stroke="#3E3E52" stroke-width="2" stroke-linecap="round" stroke-linejoin="round"/>
</svg>
