<svg width="24" height="24" viewBox="0 0 24 24" fill="none" xmlns="http://www.w3.org/2000/svg">
<path className="stroke-current" d="M18.7787 1.38428C20.1056 1.38428 20.769 1.38428 21.2758 1.64251C21.7216 1.86965 22.0841 2.2321 22.3112 2.6779C22.5695 3.1847 22.5695 3.84815 22.5695 5.17504L22.5695 5.88581C22.5695 7.21271 22.5695 7.87615 22.3112 8.38296C22.0841 8.82876 21.7216 9.1912 21.2758 9.41835C20.769 9.67658 20.1056 9.67658 18.7787 9.67658L18.0679 9.67658C16.741 9.67658 16.0776 9.67658 15.5708 9.41835C15.125 9.1912 14.7625 8.82876 14.5354 8.38296C14.2772 7.87615 14.2772 7.21271 14.2772 5.88581L14.2772 5.17504C14.2772 3.84815 14.2772 3.1847 14.5354 2.6779C14.7625 2.2321 15.125 1.86965 15.5708 1.64251C16.0776 1.38428 16.741 1.38428 18.0679 1.38428L18.7787 1.38428Z" stroke="#3E3E52" stroke-width="2" stroke-linecap="round" stroke-linejoin="round"/>
<path className="stroke-current" d="M5.74793 1.38428C7.07482 1.38428 7.73827 1.38428 8.24507 1.64251C8.69087 1.86965 9.05332 2.2321 9.28047 2.6779C9.5387 3.1847 9.5387 3.84815 9.5387 5.17504L9.5387 5.88581C9.5387 7.21271 9.5387 7.87615 9.28047 8.38296C9.05332 8.82876 8.69087 9.1912 8.24507 9.41835C7.73827 9.67658 7.07482 9.67658 5.74793 9.67658L5.03716 9.67658C3.71027 9.67658 3.04682 9.67658 2.54001 9.41835C2.09422 9.1912 1.73177 8.82876 1.50462 8.38296C1.24639 7.87615 1.24639 7.2127 1.24639 5.88581L1.24639 5.17504C1.24639 3.84815 1.24639 3.1847 1.50462 2.6779C1.73177 2.2321 2.09422 1.86965 2.54001 1.64251C3.04682 1.38428 3.71027 1.38428 5.03716 1.38428L5.74793 1.38428Z" stroke="#3E3E52" stroke-width="2" stroke-linecap="round" stroke-linejoin="round"/>
<path className="stroke-current" d="M18.7787 14.415C20.1056 14.415 20.769 14.415 21.2758 14.6733C21.7216 14.9004 22.0841 15.2629 22.3112 15.7087C22.5695 16.2155 22.5695 16.8789 22.5695 18.2058L22.5695 18.9166C22.5695 20.2435 22.5695 20.9069 22.3112 21.4137C22.0841 21.8595 21.7216 22.222 21.2758 22.4491C20.769 22.7073 20.1056 22.7073 18.7787 22.7073L18.0679 22.7073C16.741 22.7073 16.0776 22.7073 15.5708 22.4491C15.125 22.222 14.7625 21.8595 14.5354 21.4137C14.2772 20.9069 14.2772 20.2435 14.2772 18.9166L14.2772 18.2058C14.2772 16.8789 14.2772 16.2155 14.5354 15.7087C14.7625 15.2629 15.125 14.9004 15.5708 14.6733C16.0776 14.415 16.741 14.415 18.0679 14.415L18.7787 14.415Z" stroke="#3E3E52" stroke-width="2" stroke-linecap="round" stroke-linejoin="round"/>
<path className="stroke-current" d="M5.74793 14.415C7.07482 14.415 7.73827 14.415 8.24507 14.6733C8.69087 14.9004 9.05332 15.2629 9.28047 15.7087C9.5387 16.2155 9.5387 16.8789 9.5387 18.2058L9.5387 18.9166C9.5387 20.2435 9.5387 20.9069 9.28047 21.4137C9.05332 21.8595 8.69087 22.222 8.24507 22.4491C7.73827 22.7073 7.07482 22.7073 5.74793 22.7073L5.03716 22.7073C3.71027 22.7073 3.04682 22.7073 2.54001 22.4491C2.09421 22.222 1.73177 21.8595 1.50462 21.4137C1.24639 20.9069 1.24639 20.2435 1.24639 18.9166L1.24639 18.2058C1.24639 16.8789 1.24639 16.2155 1.50462 15.7087C1.73177 15.2629 2.09422 14.9004 2.54001 14.6733C3.04682 14.415 3.71027 14.415 5.03716 14.415L5.74793 14.415Z" stroke="#3E3E52" stroke-width="2" stroke-linecap="round" stroke-linejoin="round"/>
</svg>
