<svg width="31" height="31" viewBox="0 0 31 31" fill="none" xmlns="http://www.w3.org/2000/svg">
<path d="M4.90491 15.6079H26.0964M4.90491 15.6079V23.1763C4.90491 25.2956 4.90491 26.3553 5.31736 27.1648C5.68017 27.8768 6.25907 28.4557 6.97111 28.8185C7.78059 29.231 8.84027 29.231 10.9596 29.231H20.0417C22.161 29.231 23.2207 29.231 24.0302 28.8185C24.7422 28.4557 25.3211 27.8768 25.6839 27.1648C26.0964 26.3553 26.0964 25.2956 26.0964 23.1763V15.6079M4.90491 15.6079C4.4831 15.6079 4.2722 15.6079 4.0953 15.5833C2.95637 15.4244 2.06111 14.5291 1.90224 13.3902C1.87756 13.2133 1.87756 13.0024 1.87756 12.5806C1.87756 12.1588 1.87756 11.9479 1.90224 11.771C2.06111 10.632 2.95637 9.73678 4.0953 9.57791C4.2722 9.55323 4.4831 9.55323 4.90491 9.55323H26.0964C26.5182 9.55323 26.7291 9.55323 26.906 9.57791C28.0449 9.73678 28.9402 10.632 29.099 11.771C29.1237 11.9479 29.1237 12.1588 29.1237 12.5806C29.1237 13.0024 29.1237 13.2133 29.099 13.3902C28.9402 14.5291 28.0449 15.4244 26.906 15.5833C26.7291 15.6079 26.5182 15.6079 26.0964 15.6079M15.5006 9.55323H19.2848C21.3748 9.55323 23.069 7.859 23.069 5.76905C23.069 3.6791 21.3748 1.98486 19.2848 1.98486C17.1949 1.98486 15.5006 3.6791 15.5006 5.76905M15.5006 9.55323V5.76905M15.5006 9.55323L15.5006 29.231M15.5006 9.55323H11.7164C9.6265 9.55323 7.93226 7.859 7.93226 5.76905C7.93226 3.6791 9.6265 1.98486 11.7164 1.98486C13.8064 1.98486 15.5006 3.6791 15.5006 5.76905" stroke="#3E3E52" stroke-width="2" stroke-linecap="round" stroke-linejoin="round"/>
</svg>
