<svg width="33" height="33" viewBox="0 0 33 33" fill="none" xmlns="http://www.w3.org/2000/svg">
<path d="M4.5061 17.6497C4.5061 16.2945 4.5061 15.6169 4.66425 14.9822C4.80443 14.4196 5.03546 13.8836 5.34824 13.3954C5.70109 12.8446 6.19372 12.3793 7.17896 11.4488L10.644 8.17633C12.705 6.22982 13.7355 5.25656 14.9111 4.88939C15.9459 4.56617 17.0547 4.56617 18.0896 4.88939C19.2652 5.25656 20.2957 6.22982 22.3567 8.17633L25.8217 11.4488C26.8069 12.3793 27.2996 12.8446 27.6524 13.3954C27.9652 13.8836 28.1962 14.4196 28.3364 14.9822C28.4946 15.6169 28.4946 16.2945 28.4946 17.6497V20.1036C28.4946 23.0891 28.4946 24.5818 27.9135 25.7222C27.4025 26.7252 26.587 27.5407 25.5839 28.0518C24.4436 28.6328 22.9508 28.6328 19.9653 28.6328H13.0353C10.0498 28.6328 8.55707 28.6328 7.41675 28.0518C6.4137 27.5407 5.5982 26.7252 5.08712 25.7222C4.5061 24.5818 4.5061 23.0891 4.5061 20.1036V17.6497Z" stroke="#fff" stroke-width="2" stroke-linecap="round" stroke-linejoin="round"/>
</svg>
