<svg width="27" height="23" viewBox="0 0 27 23" fill="none" xmlns="http://www.w3.org/2000/svg">
<path d="M9.35431 1.64598V18.506M17.6466 4.92444V21.7844M11.3321 2.26784L15.6891 4.31212C16.3944 4.64304 16.747 4.8085 17.1163 4.87625C17.4665 4.94051 17.8267 4.94051 18.177 4.87625C18.5462 4.8085 18.8989 4.64304 19.6042 4.31212C21.6646 3.34535 22.6948 2.86196 23.5331 2.9648C24.3189 3.0612 25.0227 3.46942 25.466 4.08581C25.9389 4.74342 25.9389 5.8243 25.9389 7.98606V15.6349C25.9389 16.566 25.9389 17.0315 25.7878 17.4425C25.6543 17.806 25.4362 18.137 25.1495 18.4117C24.8254 18.7223 24.3816 18.9305 23.4942 19.3469L19.6244 21.1626C18.8992 21.5029 18.5366 21.673 18.1563 21.74C17.8195 21.7993 17.4738 21.7993 17.1369 21.74C16.7566 21.673 16.394 21.5029 15.6688 21.1626L11.3119 19.1183C10.6066 18.7874 10.2539 18.6219 9.88466 18.5542C9.53441 18.4899 9.17422 18.4899 8.82397 18.5542C8.4547 18.6219 8.10206 18.7874 7.39677 19.1183C5.33632 20.0851 4.30609 20.5685 3.4678 20.4656C2.68206 20.3692 1.9782 19.961 1.53493 19.3446C1.06201 18.687 1.06201 17.6061 1.06201 15.4444V7.79554C1.06201 6.86446 1.06201 6.39892 1.21308 5.98791C1.34668 5.62445 1.56471 5.2934 1.85139 5.01873C2.17557 4.70812 2.6193 4.49992 3.50674 4.08353L7.37648 2.26784C8.10169 1.92757 8.46429 1.75744 8.84462 1.69048C9.18148 1.63117 9.52715 1.63117 9.86401 1.69048C10.2443 1.75744 10.6069 1.92757 11.3321 2.26784Z" stroke="#3E3E52" stroke-width="2" stroke-linecap="round" stroke-linejoin="round"/>
</svg>
